<svg xmlns="http://www.w3.org/2000/svg" version="1.1" xmlns:xlink="http://www.w3.org/1999/xlink" xmlns:svgjs="http://svgjs.dev/svgjs" viewBox="0 0 2400 800"><defs><linearGradient x1="50%" y1="0%" x2="50%" y2="100%" id="sssurf-grad"><stop stop-color="#caa473ff" stop-opacity="1" offset="0%"></stop><stop stop-color="#dad0c7ff" stop-opacity="1" offset="100%"></stop></linearGradient></defs><g fill="url(#sssurf-grad)" transform="matrix(1,0,0,1,6.8720703125,93.76091003417969)"><path d="M-10,10C63.51190476190476,16.25,197.91666666666666,67.5,342.85714285714283,40C487.79761904761904,12.5,542.8571428571429,-140.33333333333334,685.7142857142857,-122C828.5714285714284,-103.66666666666667,885.7142857142856,115.91666666666667,1028.5714285714284,128C1171.4285714285713,140.08333333333334,1228.5714285714284,-43.791666666666664,1371.4285714285713,-64C1514.2857142857142,-84.20833333333334,1571.4285714285713,23.708333333333336,1714.2857142857142,31C1857.142857142857,38.291666666666664,1914.285714285714,-30.875,2057.142857142857,-29C2199.9999999999995,-27.125,2276.4880952380954,-49.375,2400,40C2523.5119047619046,129.375,3254.1666666666665,220.83333333333331,2650,400C2045.8333333333335,579.1666666666667,156.25,795.8333333333334,-500,900" transform="matrix(1,0,0,1,0,106)" opacity="0.05"></path><path d="M-10,10C63.51190476190476,16.25,197.91666666666666,67.5,342.85714285714283,40C487.79761904761904,12.5,542.8571428571429,-140.33333333333334,685.7142857142857,-122C828.5714285714284,-103.66666666666667,885.7142857142856,115.91666666666667,1028.5714285714284,128C1171.4285714285713,140.08333333333334,1228.5714285714284,-43.791666666666664,1371.4285714285713,-64C1514.2857142857142,-84.20833333333334,1571.4285714285713,23.708333333333336,1714.2857142857142,31C1857.142857142857,38.291666666666664,1914.285714285714,-30.875,2057.142857142857,-29C2199.9999999999995,-27.125,2276.4880952380954,-49.375,2400,40C2523.5119047619046,129.375,3254.1666666666665,220.83333333333331,2650,400C2045.8333333333335,579.1666666666667,156.25,795.8333333333334,-500,900" transform="matrix(1,0,0,1,0,212)" opacity="0.29"></path><path d="M-10,10C63.51190476190476,16.25,197.91666666666666,67.5,342.85714285714283,40C487.79761904761904,12.5,542.8571428571429,-140.33333333333334,685.7142857142857,-122C828.5714285714284,-103.66666666666667,885.7142857142856,115.91666666666667,1028.5714285714284,128C1171.4285714285713,140.08333333333334,1228.5714285714284,-43.791666666666664,1371.4285714285713,-64C1514.2857142857142,-84.20833333333334,1571.4285714285713,23.708333333333336,1714.2857142857142,31C1857.142857142857,38.291666666666664,1914.285714285714,-30.875,2057.142857142857,-29C2199.9999999999995,-27.125,2276.4880952380954,-49.375,2400,40C2523.5119047619046,129.375,3254.1666666666665,220.83333333333331,2650,400C2045.8333333333335,579.1666666666667,156.25,795.8333333333334,-500,900" transform="matrix(1,0,0,1,0,318)" opacity="0.53"></path><path d="M-10,10C63.51190476190476,16.25,197.91666666666666,67.5,342.85714285714283,40C487.79761904761904,12.5,542.8571428571429,-140.33333333333334,685.7142857142857,-122C828.5714285714284,-103.66666666666667,885.7142857142856,115.91666666666667,1028.5714285714284,128C1171.4285714285713,140.08333333333334,1228.5714285714284,-43.791666666666664,1371.4285714285713,-64C1514.2857142857142,-84.20833333333334,1571.4285714285713,23.708333333333336,1714.2857142857142,31C1857.142857142857,38.291666666666664,1914.285714285714,-30.875,2057.142857142857,-29C2199.9999999999995,-27.125,2276.4880952380954,-49.375,2400,40C2523.5119047619046,129.375,3254.1666666666665,220.83333333333331,2650,400C2045.8333333333335,579.1666666666667,156.25,795.8333333333334,-500,900" transform="matrix(1,0,0,1,0,424)" opacity="0.76"></path><path d="M-10,10C63.51190476190476,16.25,197.91666666666666,67.5,342.85714285714283,40C487.79761904761904,12.5,542.8571428571429,-140.33333333333334,685.7142857142857,-122C828.5714285714284,-103.66666666666667,885.7142857142856,115.91666666666667,1028.5714285714284,128C1171.4285714285713,140.08333333333334,1228.5714285714284,-43.791666666666664,1371.4285714285713,-64C1514.2857142857142,-84.20833333333334,1571.4285714285713,23.708333333333336,1714.2857142857142,31C1857.142857142857,38.291666666666664,1914.285714285714,-30.875,2057.142857142857,-29C2199.9999999999995,-27.125,2276.4880952380954,-49.375,2400,40C2523.5119047619046,129.375,3254.1666666666665,220.83333333333331,2650,400C2045.8333333333335,579.1666666666667,156.25,795.8333333333334,-500,900" transform="matrix(1,0,0,1,0,530)" opacity="1.00"></path></g></svg>